# xmcd
#
# Track frame offsets:
#	150
#	19092
#	33840
#	48887
#	63180
#	78050
#	93965
#	109087
#	124905
#	153722
#	176165
#	189497
#	203092
#	219395
#	236160
#	265785
#	279860
#	297807
#
# Disc length: 4218 seconds
#
# Revision: 0
# Processed by: cddbd v1.5.1PL2 Copyright (c) Steve Scherf et al.
# Submitted via: dBpowerAMP V4.0
#
DISCID=f1107812
DTITLE=Various Artist - Best Country Collection
DYEAR=1900
DGENRE=
TTITLE0=Islands in The Stream
TTITLE1=Rhinestone Cowboy
TTITLE2=It Never Rains in Southern California
TTITLE3=Various Artist - Country Roads
TTITLE4=Longer
TTITLE5=American Dreams
TTITLE6=Tie A Yellow Ribbon
TTITLE7=I Know A heartache When I See one
TTITLE8=Lyin' Eyes
TTITLE9=Fast Car
TTITLE10=Cotton Fields
TTITLE11=San Fransisco
TTITLE12=Stony
TTITLE13=Jambalaya
TTITLE14=Sutter Mill
TTITLE15=No Getting Over Me
TTITLE16=Stumbin In
TTITLE17=A Horse With no Name
EXTD=
EXTT0=
EXTT1=
EXTT2=
EXTT3=
EXTT4=
EXTT5=
EXTT6=
EXTT7=
EXTT8=
EXTT9=
EXTT10=
EXTT11=
EXTT12=
EXTT13=
EXTT14=
EXTT15=
EXTT16=
EXTT17=
PLAYORDER=
